<?xml version="1.0" encoding="UTF-8" standalone="no"?>
<svg
   xmlns:dc="http://purl.org/dc/elements/1.1/"
   xmlns:cc="http://creativecommons.org/ns#"
   xmlns:rdf="http://www.w3.org/1999/02/22-rdf-syntax-ns#"
   xmlns:svg="http://www.w3.org/2000/svg"
   xmlns="http://www.w3.org/2000/svg"
   id="svg8"
   version="1.1"
   viewBox="0 0 89.999672 179.99986"
   height="179.99986mm"
   width="89.999672mm">
  <defs
     id="defs2" />
  <metadata
     id="metadata5">
    <rdf:RDF>
      <cc:Work
         rdf:about="">
        <dc:format>image/svg+xml</dc:format>
        <dc:type
           rdf:resource="http://purl.org/dc/dcmitype/StillImage" />
        <dc:title></dc:title>
      </cc:Work>
    </rdf:RDF>
  </metadata>
  <g
     transform="translate(-80.724489,-30.799669)"
     id="layer1">
    <g
       id="g845">
      <path
         style="opacity:1;vector-effect:none;fill:#cfd0e7;fill-opacity:1;stroke:none;stroke-width:2.64583325;stroke-linecap:round;stroke-linejoin:round;stroke-miterlimit:4;stroke-dasharray:none;stroke-dashoffset:0;stroke-opacity:1;paint-order:normal"
         d="m 90.724398,30.799669 c -5.540002,0 -9.999909,4.459907 -9.999909,9.999906 V 200.79963 c 0,5.54 4.459907,9.9999 9.999909,9.9999 h 69.999862 c 5.54,0 9.9999,-4.4599 9.9999,-9.9999 V 40.799575 c 0,-5.539999 -4.4599,-9.999906 -9.9999,-9.999906 z m -1.99988,11.306286 h 73.999622 c 2.77,0 5.00021,2.230213 5.00021,5.000212 V 194.49304 c 0,2.77 -2.23021,5.00021 -5.00021,5.00021 H 88.724518 c -2.769999,0 -5.000209,-2.23021 -5.000209,-5.00021 V 47.106167 c 0,-2.769999 2.23021,-5.000212 5.000209,-5.000212 z"
         id="rect826" />
      <circle
         style="opacity:1;vector-effect:none;fill:#686bb3;fill-opacity:1;stroke:none;stroke-width:2.64583325;stroke-linecap:round;stroke-linejoin:round;stroke-miterlimit:4;stroke-dasharray:none;stroke-dashoffset:0;stroke-opacity:1;paint-order:normal"
         id="path835"
         cx="150.84401"
         cy="36.952381"
         r="1.2189255" />
      <circle
         r="1.2189255"
         cy="36.952381"
         cx="144.60741"
         id="circle837"
         style="opacity:1;vector-effect:none;fill:#686bb3;fill-opacity:1;stroke:none;stroke-width:2.64583325;stroke-linecap:round;stroke-linejoin:round;stroke-miterlimit:4;stroke-dasharray:none;stroke-dashoffset:0;stroke-opacity:1;paint-order:normal" />
      <rect
         style="opacity:1;vector-effect:none;fill:#686bb3;fill-opacity:1;stroke:none;stroke-width:2.64583325;stroke-linecap:round;stroke-linejoin:round;stroke-miterlimit:4;stroke-dasharray:none;stroke-dashoffset:0;stroke-opacity:1;paint-order:normal"
         id="rect839"
         width="21.450148"
         height="2.8348215"
         x="114.99925"
         y="35.534969"
         ry="1" />
    </g>
  </g>
</svg>
