<?xml version="1.0" encoding="UTF-8" standalone="no"?>
<svg
   xmlns:dc="http://purl.org/dc/elements/1.1/"
   xmlns:cc="http://creativecommons.org/ns#"
   xmlns:rdf="http://www.w3.org/1999/02/22-rdf-syntax-ns#"
   xmlns:svg="http://www.w3.org/2000/svg"
   xmlns="http://www.w3.org/2000/svg"
   xmlns:sodipodi="http://sodipodi.sourceforge.net/DTD/sodipodi-0.dtd"
   xmlns:inkscape="http://www.inkscape.org/namespaces/inkscape"
   id="Logo_FIXED"
   data-name="Logo — FIXED"
   viewBox="0 0 200 200"
   version="1.1"
   sodipodi:docname="socialmedia_icons.svg"
   width="200"
   height="200"
   inkscape:version="0.92.3 (2405546, 2018-03-11)"
   inkscape:export-filename="./socialmedia_youtube.png"
   inkscape:export-xdpi="24"
   inkscape:export-ydpi="24">
  <metadata
     id="metadata15">
    <rdf:RDF>
      <cc:Work
         rdf:about="">
        <dc:format>image/svg+xml</dc:format>
        <dc:type
           rdf:resource="http://purl.org/dc/dcmitype/StillImage" />
        <dc:title>Twitter_Logo_Blue</dc:title>
      </cc:Work>
    </rdf:RDF>
  </metadata>
  <sodipodi:namedview
     pagecolor="#ffffff"
     bordercolor="#666666"
     borderopacity="1"
     objecttolerance="10"
     gridtolerance="10"
     guidetolerance="10"
     inkscape:pageopacity="0"
     inkscape:pageshadow="2"
     inkscape:window-width="1920"
     inkscape:window-height="1017"
     id="namedview13"
     showgrid="false"
     inkscape:zoom="1.18"
     inkscape:cx="84.414698"
     inkscape:cy="140.53767"
     inkscape:window-x="1912"
     inkscape:window-y="-8"
     inkscape:window-maximized="1"
     inkscape:current-layer="layer5"
     inkscape:snap-global="true" />
  <defs
     id="defs4">
    <style
       id="style2">.cls-1{fill:none;}.cls-2{fill:#1da1f2;}</style>
  </defs>
  <title
     id="title6">Twitter_Logo_Blue</title>
  <rect
     class="cls-1"
     width="400"
     height="400"
     id="rect8"
     x="0"
     y="-200"
     style="fill:none" />
  <g
     inkscape:groupmode="layer"
     id="layer1"
     inkscape:label="twitter"
     style="display:none">
    <path
       class="cls-2"
       d="m 66.276587,172.09224 c 67.676403,0 104.692523,-56.06939 104.692523,-104.692516 0,-1.592555 0,-3.177936 -0.1076,-4.756143 a 74.864405,74.864405 0 0 0 18.35741,-19.04609 73.444019,73.444019 0 0 1 -21.13363,5.789152 36.922872,36.922872 0 0 0 16.17663,-20.351698 73.738139,73.738139 0 0 1 -23.36464,8.931217 36.829614,36.829614 0 0 0 -62.705042,33.55842 104.46296,104.46296 0 0 1 -75.832845,-38.443688 36.82244,36.82244 0 0 0 11.391786,49.118109 36.521146,36.521146 0 0 1 -16.7003,-4.605497 c 0,0.150648 0,0.308469 0,0.46629 A 36.808093,36.808093 0 0 0 46.57052,114.129 a 36.736356,36.736356 0 0 1 -16.614213,0.63128 36.836787,36.836787 0 0 0 34.376218,25.55261 73.831397,73.831397 0 0 1 -45.696266,15.78207 74.900273,74.900273 0 0 1 -8.759048,-0.53084 104.16884,104.16884 0 0 0 56.399376,16.49943"
       id="path10"
       inkscape:connector-curvature="0"
       style="fill:#1da1f2;stroke-width:1" />
  </g>
  <g
     inkscape:groupmode="layer"
     id="layer2"
     inkscape:label="da"
     style="display:none">
    <g
       transform="matrix(1.1681177,0,0,-1.1681177,158.59423,9.141152)"
       id="g31"
       style="stroke-width:1.14143741">
      <path
         inkscape:connector-curvature="0"
         id="path33"
         style="fill:#05cc47;fill-opacity:1;fill-rule:nonzero;stroke:none;stroke-width:1.14143741"
         d="m 0,0 h -28.144 l -2.81,-2.833 -13.284,-25.315 -4.177,-2.819 h -47.411 v -38.661 h 26.065 l 2.321,-2.808 -28.386,-54.242 v -28.153 h 0.008 28.144 l 2.81,2.833 13.284,25.316 4.177,2.818 H 0.009 v 38.66 h -26.065 l -2.319,2.828 28.384,54.224 V 0 Z" />
    </g>
  </g>
  <g
     inkscape:groupmode="layer"
     id="layer3"
     inkscape:label="fb"
     style="display:none">
    <path
       style="fill:#3c5a99;stroke-width:1"
       d="M 19.935052,9.99985 C 14.447401,9.99985 10,14.447182 10,19.934749 V 180.06355 c 0,5.48617 4.446702,9.93627 9.935052,9.93627 H 106.14478 V 120.29319 H 82.686982 V 93.12807 H 106.14478 V 73.09458 c 0,-23.24865 14.19958,-35.90778 34.93979,-35.90778 9.93463,0 18.47358,0.73841 20.96142,1.06947 v 24.29774 l -14.38489,0.007 c -11.27843,0 -13.46272,5.35877 -13.46272,13.2238 v 17.34344 h 26.89953 l -3.50312,27.16512 H 134.19838 V 190 h 45.86794 C 185.55187,190 190,185.5506 190,180.06373 V 19.934749 c 0,-5.487567 -4.44743,-9.934899 -9.93368,-9.934899 z"
       id="Blue_1_"
       inkscape:connector-curvature="0" />
  </g>
  <g
     inkscape:groupmode="layer"
     id="layer4"
     inkscape:label="email"
     style="display:none">
    <path
       style="opacity:1;vector-effect:none;fill:#5b2d84;fill-opacity:1;stroke:none;stroke-width:1;stroke-linecap:round;stroke-linejoin:round;stroke-miterlimit:4;stroke-dasharray:none;stroke-dashoffset:0;stroke-opacity:1;paint-order:normal"
       d="M 17.525391,30 100,103.31055 182.47461,30 Z M 10,36.689453 V 163.1582 L 79.404297,98.382812 Z m 180,0 L 120.5957,98.382812 190,163.1582 Z M 86.912109,105.05664 17.330078,170 H 182.66992 L 113.08789,105.05664 100,116.68945 Z"
       id="rect822"
       inkscape:connector-curvature="0" />
  </g>
  <g
     inkscape:groupmode="layer"
     id="layer5"
     inkscape:label="youtube">
    <g
       transform="matrix(9.4721382,0,0,9.4721382,-13.665658,-13.665658)"
       style="clip-rule:evenodd;fill-rule:evenodd;stroke-width:0.10557278;stroke-linejoin:round;stroke-miterlimit:1.41420996"
       id="g7">
      <path
         inkscape:connector-curvature="0"
         d="M 2.093,9.075 C 2.218,7.134 3.722,5.566 5.655,5.359 7.66,5.157 9.791,5.048 12,5.048 c 2.209,0 4.34,0.109 6.345,0.312 1.933,0.206 3.437,1.774 3.562,3.715 C 21.968,10.031 22,11.008 22,12 c 0,0.992 -0.032,1.969 -0.093,2.925 -0.125,1.941 -1.629,3.509 -3.562,3.716 C 16.34,18.843 14.209,18.952 12,18.952 9.791,18.952 7.66,18.843 5.655,18.64 3.722,18.434 2.218,16.866 2.093,14.925 2.032,13.969 2,12.992 2,12 2,11.008 2.032,10.031 2.093,9.075 Z"
         style="fill:#ff0000;stroke-width:0.10557278"
         id="path3" />
      <path
         inkscape:connector-curvature="0"
         d="m 15.055,12 -4.909,2.995 v -5.99 z"
         style="fill:#ffffff;stroke-width:0.10557278"
         id="path5" />
    </g>
  </g>
</svg>
