<?xml version="1.0" encoding="UTF-8" standalone="no"?>
<svg
   xmlns:dc="http://purl.org/dc/elements/1.1/"
   xmlns:cc="http://creativecommons.org/ns#"
   xmlns:rdf="http://www.w3.org/1999/02/22-rdf-syntax-ns#"
   xmlns:svg="http://www.w3.org/2000/svg"
   xmlns="http://www.w3.org/2000/svg"
   xmlns:sodipodi="http://sodipodi.sourceforge.net/DTD/sodipodi-0.dtd"
   xmlns:inkscape="http://www.inkscape.org/namespaces/inkscape"
   id="Logo_FIXED"
   data-name="Logo — FIXED"
   viewBox="0 0 200 200"
   version="1.1"
   sodipodi:docname="socialmedia_icons.svg"
   width="200"
   height="200"
   inkscape:version="0.92.3 (2405546, 2018-03-11)"
   inkscape:export-filename="./socialmedia_itchio.png"
   inkscape:export-xdpi="24"
   inkscape:export-ydpi="24">
  <metadata
     id="metadata15">
    <rdf:RDF>
      <cc:Work
         rdf:about="">
        <dc:format>image/svg+xml</dc:format>
        <dc:type
           rdf:resource="http://purl.org/dc/dcmitype/StillImage" />
        <dc:title>Twitter_Logo_Blue</dc:title>
      </cc:Work>
    </rdf:RDF>
  </metadata>
  <sodipodi:namedview
     pagecolor="#ffffff"
     bordercolor="#666666"
     borderopacity="1"
     objecttolerance="10"
     gridtolerance="10"
     guidetolerance="10"
     inkscape:pageopacity="0"
     inkscape:pageshadow="2"
     inkscape:window-width="981"
     inkscape:window-height="945"
     id="namedview13"
     showgrid="false"
     inkscape:zoom="0.59"
     inkscape:cx="34.081126"
     inkscape:cy="153.47696"
     inkscape:window-x="719"
     inkscape:window-y="31"
     inkscape:window-maximized="0"
     inkscape:current-layer="layer6"
     inkscape:snap-global="true" />
  <defs
     id="defs4">
    <style
       id="style2">.cls-1{fill:none;}.cls-2{fill:#1da1f2;}</style>
  </defs>
  <title
     id="title6">Twitter_Logo_Blue</title>
  <rect
     class="cls-1"
     width="400"
     height="400"
     id="rect8"
     x="0"
     y="-200"
     style="fill:none" />
  <g
     inkscape:groupmode="layer"
     id="layer1"
     inkscape:label="twitter"
     style="display:none">
    <path
       class="cls-2"
       d="m 66.276587,172.09224 c 67.676403,0 104.692523,-56.06939 104.692523,-104.692516 0,-1.592555 0,-3.177936 -0.1076,-4.756143 a 74.864405,74.864405 0 0 0 18.35741,-19.04609 73.444019,73.444019 0 0 1 -21.13363,5.789152 36.922872,36.922872 0 0 0 16.17663,-20.351698 73.738139,73.738139 0 0 1 -23.36464,8.931217 36.829614,36.829614 0 0 0 -62.705042,33.55842 104.46296,104.46296 0 0 1 -75.832845,-38.443688 36.82244,36.82244 0 0 0 11.391786,49.118109 36.521146,36.521146 0 0 1 -16.7003,-4.605497 c 0,0.150648 0,0.308469 0,0.46629 A 36.808093,36.808093 0 0 0 46.57052,114.129 a 36.736356,36.736356 0 0 1 -16.614213,0.63128 36.836787,36.836787 0 0 0 34.376218,25.55261 73.831397,73.831397 0 0 1 -45.696266,15.78207 74.900273,74.900273 0 0 1 -8.759048,-0.53084 104.16884,104.16884 0 0 0 56.399376,16.49943"
       id="path10"
       inkscape:connector-curvature="0"
       style="fill:#1da1f2;stroke-width:1" />
  </g>
  <g
     inkscape:groupmode="layer"
     id="layer2"
     inkscape:label="da"
     style="display:none">
    <g
       transform="matrix(1.1681177,0,0,-1.1681177,158.59423,9.141152)"
       id="g31"
       style="stroke-width:1.14143741">
      <path
         inkscape:connector-curvature="0"
         id="path33"
         style="fill:#05cc47;fill-opacity:1;fill-rule:nonzero;stroke:none;stroke-width:1.14143741"
         d="m 0,0 h -28.144 l -2.81,-2.833 -13.284,-25.315 -4.177,-2.819 h -47.411 v -38.661 h 26.065 l 2.321,-2.808 -28.386,-54.242 v -28.153 h 0.008 28.144 l 2.81,2.833 13.284,25.316 4.177,2.818 H 0.009 v 38.66 h -26.065 l -2.319,2.828 28.384,54.224 V 0 Z" />
    </g>
  </g>
  <g
     inkscape:groupmode="layer"
     id="layer3"
     inkscape:label="fb"
     style="display:none">
    <path
       style="fill:#3c5a99;stroke-width:1"
       d="M 19.935052,9.99985 C 14.447401,9.99985 10,14.447182 10,19.934749 V 180.06355 c 0,5.48617 4.446702,9.93627 9.935052,9.93627 H 106.14478 V 120.29319 H 82.686982 V 93.12807 H 106.14478 V 73.09458 c 0,-23.24865 14.19958,-35.90778 34.93979,-35.90778 9.93463,0 18.47358,0.73841 20.96142,1.06947 v 24.29774 l -14.38489,0.007 c -11.27843,0 -13.46272,5.35877 -13.46272,13.2238 v 17.34344 h 26.89953 l -3.50312,27.16512 H 134.19838 V 190 h 45.86794 C 185.55187,190 190,185.5506 190,180.06373 V 19.934749 c 0,-5.487567 -4.44743,-9.934899 -9.93368,-9.934899 z"
       id="Blue_1_"
       inkscape:connector-curvature="0" />
  </g>
  <g
     inkscape:groupmode="layer"
     id="layer4"
     inkscape:label="email"
     style="display:none">
    <path
       style="opacity:1;vector-effect:none;fill:#5b2d84;fill-opacity:1;stroke:none;stroke-width:1;stroke-linecap:round;stroke-linejoin:round;stroke-miterlimit:4;stroke-dasharray:none;stroke-dashoffset:0;stroke-opacity:1;paint-order:normal"
       d="M 17.525391,30 100,103.31055 182.47461,30 Z M 10,36.689453 V 163.1582 L 79.404297,98.382812 Z m 180,0 L 120.5957,98.382812 190,163.1582 Z M 86.912109,105.05664 17.330078,170 H 182.66992 L 113.08789,105.05664 100,116.68945 Z"
       id="rect822"
       inkscape:connector-curvature="0" />
  </g>
  <g
     inkscape:groupmode="layer"
     id="layer5"
     inkscape:label="youtube"
     style="display:none">
    <g
       transform="matrix(9.4721382,0,0,9.4721382,-13.665658,-13.665658)"
       style="clip-rule:evenodd;fill-rule:evenodd;stroke-width:0.10557278;stroke-linejoin:round;stroke-miterlimit:1.41420996"
       id="g7">
      <path
         inkscape:connector-curvature="0"
         d="M 2.093,9.075 C 2.218,7.134 3.722,5.566 5.655,5.359 7.66,5.157 9.791,5.048 12,5.048 c 2.209,0 4.34,0.109 6.345,0.312 1.933,0.206 3.437,1.774 3.562,3.715 C 21.968,10.031 22,11.008 22,12 c 0,0.992 -0.032,1.969 -0.093,2.925 -0.125,1.941 -1.629,3.509 -3.562,3.716 C 16.34,18.843 14.209,18.952 12,18.952 9.791,18.952 7.66,18.843 5.655,18.64 3.722,18.434 2.218,16.866 2.093,14.925 2.032,13.969 2,12.992 2,12 2,11.008 2.032,10.031 2.093,9.075 Z"
         style="fill:#ff0000;stroke-width:0.10557278"
         id="path3" />
      <path
         inkscape:connector-curvature="0"
         d="m 15.055,12 -4.909,2.995 v -5.99 z"
         style="fill:#ffffff;stroke-width:0.10557278"
         id="path5" />
    </g>
  </g>
  <g
     inkscape:groupmode="layer"
     id="layer6"
     inkscape:label="itchio">
    <path
       inkscape:connector-curvature="0"
       style="color:#000000;fill:#ff2449;fill-opacity:1;stroke-width:1.06666374"
       d="m 35.537375,25.242313 c -7.65392,4.54458 -22.733632,21.868335 -22.876656,26.411488 v 7.520196 c 0,9.532539 8.910387,17.910869 17.000523,17.910869 9.714184,0 17.807902,-8.050806 17.80861,-17.606234 0,9.555428 7.816251,17.606234 17.531153,17.606234 9.7156,0 17.280843,-8.050806 17.280843,-17.606234 0,9.555428 8.311121,17.606234 18.026002,17.606234 h 0.17592 c 9.71562,0 18.02673,-8.050806 18.02673,-17.606234 0,9.555428 7.56596,17.606234 17.28013,17.606234 9.7149,0 17.53115,-8.050806 17.53115,-17.606234 0,9.555428 8.09515,17.606234 17.80862,17.606234 8.09014,0 17.00051,-8.376903 17.00051,-17.910869 V 51.653801 C 187.98789,47.10994 172.90818,29.785466 165.25569,25.242313 141.46653,24.407047 124.97446,24.262597 100.3951,24.266168 c -24.578642,0.0021 -58.087689,0.386171 -64.859151,0.976145 z m 46.621474,47.353038 a 20.041211,20.041211 0 0 1 -3.418267,4.401555 c -3.66713,3.585605 -8.693701,5.808198 -14.235157,5.808198 A 20.368021,20.368021 0 0 1 50.240226,76.994053 c -1.328691,-1.301524 -2.338439,-2.693141 -3.263091,-4.313607 l -0.0041,0.0031 c -0.923934,1.623319 -2.211149,3.014228 -3.542703,4.317178 a 20.380893,20.380893 0 0 1 -14.265199,5.806762 c -0.667917,0 -1.363012,-0.1845 -1.925091,-0.377579 -0.780909,8.13234 -1.110578,15.904247 -1.227142,21.570853 l -10e-4,0.0321 c -0.01427,2.87763 -0.02863,5.24396 -0.04291,8.53137 0.150178,17.06273 -1.689827,55.30301 7.52305,64.69896 14.276642,3.32888 40.547251,4.84493 66.90296,4.85423 h 0.005 c 26.355,-0.009 52.62561,-1.52535 66.90225,-4.85423 9.21288,-9.39666 7.37288,-47.63695 7.52305,-64.69968 -0.0157,-3.28669 -0.0286,-5.65302 -0.0429,-8.53137 l -0.002,-0.0321 c -0.11586,-5.668036 -0.44553,-13.43923 -1.22643,-21.57156 -0.5621,0.19308 -1.25647,0.377579 -1.92511,0.377579 a 20.380893,20.380893 0 0 1 -14.26591,-5.807018 c -1.33155,-1.302939 -2.61876,-2.69313 -3.54342,-4.317168 l -0.005,-0.0031 c -0.92537,1.620456 -1.9344,3.012791 -3.26309,4.313596 a 20.36659,20.36659 0 0 1 -14.26449,5.810344 c -5.54073,0 -10.56802,-2.22402 -14.23515,-5.808907 a 20.041211,20.041211 0 0 1 -3.41827,-4.401566 20.016182,20.016182 0 0 1 -3.38681,4.401566 20.373742,20.373742 0 0 1 -14.26662,5.809625 c -0.19309,0 -0.38617,-0.0083 -0.57925,-0.01426 h -0.006 c -0.19308,0.0052 -0.38617,0.01426 -0.581386,0.01426 a 20.373742,20.373742 0 0 1 -14.265862,-5.80891 20.017613,20.017613 0 0 1 -3.386799,-4.401555 z m -14.649931,18.943502 -10e-4,0.0074 h 0.01073 c 5.801774,0.01206 10.955634,0 17.341635,6.969551 5.025862,-0.52705 10.277699,-0.79022 15.533817,-0.78235 h 0.005 c 5.25613,-0.007 10.50797,0.2553 15.53453,0.78235 6.38602,-6.97027 11.53988,-6.958114 17.34164,-6.969551 h 0.0104 l -9.2e-4,-0.0074 c 2.74105,0 13.70599,0 21.3463,21.458567 l 8.20671,29.43788 c 6.08138,21.8998 -1.94727,22.43542 -11.9618,22.45474 -14.85159,-0.55279 -23.07473,-11.33821 -23.07473,-22.12221 -8.22102,1.34728 -17.81149,2.02093 -27.40195,2.02165 h -0.005 c -9.591176,0 -19.181627,-0.67437 -27.401926,-2.02165 0,10.784 -8.223861,21.56942 -23.074745,22.12221 -10.014519,-0.0192 -18.042448,-0.55422 -11.961082,-22.45474 l 8.208856,-29.43716 c 7.640326,-21.458569 18.605249,-21.458569 21.3463,-21.458569 z m 32.884742,16.863937 v 0.005 c -0.0143,0.0143 -15.634639,14.35958 -18.442907,19.46196 l 10.229057,-0.40976 v 8.9204 c 0,0.41763 4.104782,0.24743 8.21385,0.0572 h 0.005 c 4.10766,0.19022 8.21316,0.36042 8.21316,-0.0572 v -8.92013 l 10.22904,0.40977 c -2.80897,-5.10238 -18.4429,-19.46196 -18.4429,-19.46196 v -0.005 l -0.002,9.3e-4 z"
       id="path2" />
  </g>
</svg>
